<?xml version="1.0" encoding="UTF-8" standalone="no"?>
<!-- Created with Inkscape (http://www.inkscape.org/) -->

<svg
   width="20.151983mm"
   height="22.66798mm"
   viewBox="0 0 20.151983 22.66798"
   version="1.1"
   id="svg1"
   xmlns="http://www.w3.org/2000/svg"
   xmlns:svg="http://www.w3.org/2000/svg">
  <defs
     id="defs1" />
  <g
     id="layer1"
     transform="translate(-82.65954,-132.25898)">
    <g
       id="g8"
       style="fill:#1f2937;fill-opacity:1">
      <path
         d="m 87.692866,132.67621 v 16.75078 h -4.982282 v -16.75078 z m 3.00655,16.75078 v -10.87267 q 0,-2.85929 1.705757,-4.57732 1.718028,-1.71802 4.565046,-1.71802 2.834747,0 4.331881,1.66894 1.50942,1.66894 1.50942,4.7982 v 10.70087 h -4.982287 v -10.70087 q 0,-1.53395 -1.092175,-1.53395 -1.05536,0 -1.05536,1.53395 v 10.70087 z"
         id="text1"
         style="font-size:25.1323px;line-height:1.25;font-family:'Bauhaus 93';-inkscape-font-specification:'Bauhaus 93, Normal';font-variant-ligatures:none;text-align:center;text-anchor:middle;fill:#1f2937;fill-opacity:1;stroke-width:1.07669"
         aria-label="IN" />
      <path
         d="m 84.251063,153.22079 v -1.20714 q 0.414742,0 0.414742,-0.31695 0,-0.28999 -0.316957,-0.28999 -0.320329,0 -0.320329,0.39789 v 3.00772 h -1.368985 v -2.86611 q 0,-0.44508 0.08767,-0.72832 0.09104,-0.28661 0.306841,-0.53276 0.242776,-0.27312 0.606939,-0.4316 0.364164,-0.15848 0.751931,-0.15848 0.701352,0 1.176787,0.47206 0.478808,0.47207 0.478808,1.17005 0,0.67775 -0.428229,1.09923 -0.391139,0.38777 -1.18016,0.38777 z m 5.61756,-3.0111 v 2.98412 q 0,0.78902 -0.472064,1.26109 -0.468692,0.47206 -1.250969,0.47206 -0.778905,0 -1.193647,-0.45858 -0.41137,-0.45857 -0.41137,-1.3184 v -2.94029 h 1.368985 v 2.93692 q 0,0.42148 0.300098,0.42148 0.289982,0 0.289982,-0.42148 v -2.93692 z m 2.781805,2.02314 h 1.30492 q 0.421485,0.52264 0.421485,1.1026 0,0.67438 -0.495667,1.13295 -0.492295,0.45858 -1.213878,0.45858 -0.937384,0 -1.59153,-0.71147 -0.654145,-0.71146 -0.654145,-1.73315 0,-1.02505 0.664261,-1.70617 0.667633,-0.68112 1.665711,-0.68112 0.34056,0 0.755302,0.13825 v 1.36898 q -0.323701,-0.15173 -0.59008,-0.15173 -0.482179,0 -0.789021,0.3001 -0.303469,0.30009 -0.303469,0.7789 0,0.48892 0.283238,0.77553 0.283238,0.28661 0.765418,0.28661 0.306841,0 0.306841,-0.17871 0,-0.13487 -0.202313,-0.13487 h -0.327073 z m 2.188353,-2.02314 h 1.368986 v 2.7346 q 0,0.32033 0.101156,0.42823 0.104529,0.10453 0.407998,0.10453 h 0.07081 v 1.33527 h -0.364164 q -0.748558,0 -1.166672,-0.43498 -0.418114,-0.43834 -0.418114,-1.21387 z m 3.779884,0 v 4.60263 H 97.24968 v -4.60263 z m 2.589605,2.29289 v 1.21387 h -0.39451 v 1.09587 h -1.368984 v -2.9268 q 0,-0.84971 0.461948,-1.31841 0.465316,-0.47206 1.304916,-0.47206 0.80926,0 1.19702,0.42823 0.38777,0.42486 0.38777,1.31503 v 2.97401 h -1.36899 v -2.88296 q 0,-0.26976 -0.0641,-0.37428 -0.0641,-0.10453 -0.22929,-0.10453 -0.32033,0 -0.32033,0.47881 v 0.57322 z"
         id="text3"
         style="font-size:6.90562px;line-height:1.25;font-family:'Bauhaus 93';-inkscape-font-specification:'Bauhaus 93, Normal';font-variant-ligatures:none;text-align:center;text-anchor:middle;fill:#1f2937;fill-opacity:1;stroke-width:0.383982"
         aria-label="PUGLIA" />
    </g>
  </g>
</svg>
